<?xml version="1.0" standalone="no"?>
<!DOCTYPE svg PUBLIC "-//W3C//DTD SVG 20010904//EN"
 "http://www.w3.org/TR/2001/REC-SVG-20010904/DTD/svg10.dtd">
<svg version="1.0" xmlns="http://www.w3.org/2000/svg"
 width="700.000000pt" height="700.000000pt" viewBox="0 0 700.000000 700.000000"
 preserveAspectRatio="xMidYMid meet">
<metadata>
Created by potrace 1.14, written by Peter Selinger 2001-2017
</metadata>
<g transform="translate(0.000000,700.000000) scale(0.100000,-0.100000)"
fill="#000000" stroke="none">
<path d="M4079 6566 c-2 -2 -26 -6 -53 -10 -106 -12 -147 -36 -391 -226 -38
-30 -203 -157 -365 -284 -162 -126 -297 -230 -299 -232 -1 -1 8 -27 22 -56 24
-51 41 -99 54 -149 3 -13 7 -70 9 -126 9 -290 -165 -538 -445 -634 -193 -67
-426 -30 -589 93 -37 28 -68 54 -70 59 -5 13 -16 11 -38 -9 -10 -10 -55 -45
-99 -79 -81 -62 -327 -254 -355 -276 -8 -7 -116 -90 -240 -186 -124 -96 -227
-177 -230 -180 -3 -3 -43 -35 -90 -71 -47 -36 -92 -70 -100 -77 -8 -7 -92 -72
-186 -145 -94 -73 -186 -145 -205 -160 -19 -15 -90 -70 -159 -123 -123 -95
-170 -133 -220 -174 l-25 -20 3499 -1 3498 0 -7 138 c-3 75 -8 151 -10 167 -2
17 -7 57 -10 90 -11 98 -51 296 -84 415 -74 271 -175 507 -322 755 -401 676
-1046 1173 -1799 1386 -89 25 -143 38 -275 65 -19 4 -127 20 -190 29 -17 2
-71 7 -120 11 -50 3 -93 8 -96 10 -3 2 -8 2 -10 0z"/>
<path d="M17 3062 c-16 -3 -17 -82 -17 -1111 0 -707 4 -1128 10 -1162 32 -169
189 -321 356 -345 68 -10 6151 -11 6244 -1 190 19 343 162 379 352 9 43 11
370 9 1163 l-3 1104 -653 1 c-428 1 -652 -1 -653 -8 0 -5 -2 -23 -3 -40 -14
-166 -92 -324 -217 -439 -69 -64 -212 -138 -299 -155 -232 -46 -454 25 -617
195 -69 73 -142 204 -158 284 -10 48 -16 93 -17 119 -1 17 -5 34 -10 37 -10 6
-4321 12 -4351 6z m2553 -677 c367 -100 576 -484 458 -840 -55 -166 -176 -305
-331 -379 -105 -50 -161 -65 -265 -70 -253 -12 -498 132 -612 362 -98 198 -88
446 25 632 94 155 272 278 439 304 22 4 41 8 43 9 10 10 189 -4 243 -18z"/>
</g>
</svg>
